<svg xmlns="http://www.w3.org/2000/svg" viewBox="0 0 120 100">
  <ellipse cx="60" cy="95" rx="30" ry="5" fill="rgba(0,0,0,0.1)"/>
  <ellipse cx="60" cy="60" rx="35" ry="32" fill="#FFB347"/>
  <ellipse cx="60" cy="60" rx="35" ry="32" fill="url(#bodyGrad)"/>
  <ellipse cx="60" cy="68" rx="20" ry="16" fill="#FFD080" opacity="0.6"/>
  <ellipse cx="35" cy="32" rx="10" ry="14" fill="#FFB347" transform="rotate(-15 35 32)"/>
  <ellipse cx="35" cy="32" rx="6" ry="9" fill="#FF9070" opacity="0.5" transform="rotate(-15 35 32)"/>
  <ellipse cx="85" cy="32" rx="10" ry="14" fill="#FFB347" transform="rotate(15 85 32)"/>
  <ellipse cx="85" cy="32" rx="6" ry="9" fill="#FF9070" opacity="0.5" transform="rotate(15 85 32)"/>
  <circle cx="46" cy="55" r="8" fill="#fff"/>
  <circle cx="74" cy="55" r="8" fill="#fff"/>
  <circle cx="48" cy="54" r="4.5" fill="#333"/>
  <circle cx="76" cy="54" r="4.5" fill="#333"/>
  <circle cx="50" cy="52" r="2" fill="#fff"/>
  <circle cx="78" cy="52" r="2" fill="#fff"/>
  <circle cx="36" cy="65" r="6" fill="#FF7070" opacity="0.35"/>
  <circle cx="84" cy="65" r="6" fill="#FF7070" opacity="0.35"/>
  <path d="M54 68 Q60 75 66 68" stroke="#996633" stroke-width="1.5" fill="none" stroke-linecap="round"/>
  <defs>
    <radialGradient id="bodyGrad" cx="50%" cy="40%" r="60%">
      <stop offset="0%" stop-color="#FFD080" stop-opacity="0.4"/>
      <stop offset="100%" stop-color="#FF9030" stop-opacity="0.2"/>
    </radialGradient>
  </defs>
</svg>
